<!DOCTYPE svg PUBLIC "-//W3C//DTD SVG 1.1//EN" "http://www.w3.org/Graphics/SVG/1.1/DTD/svg11.dtd">
<!-- Uploaded to: SVG Repo, www.svgrepo.com, Transformed by: SVG Repo Mixer Tools -->
<svg version="1.1" id="Uploaded to svgrepo.com" xmlns="http://www.w3.org/2000/svg" xmlns:xlink="http://www.w3.org/1999/xlink" width="800px" height="800px" viewBox="0 0 32 32" xml:space="preserve" fill="#000000">
<g id="SVGRepo_bgCarrier" stroke-width="0"/>
<g id="SVGRepo_tracerCarrier" stroke-linecap="round" stroke-linejoin="round"/>
<g id="SVGRepo_iconCarrier"> <style type="text/css"> .sharpcorners_een{fill:#ffffff;} .st0{fill:#ffffff;} </style> <path class="sharpcorners_een" d="M20,8.703c4.654,1.651,8,6.084,8,11.297v1h2v-1c0-5.096-2.745-9.551-6.826-12H26v2h6V4h-6v2h-6 V8.703z M28,6h2v2h-2V6z M13,4h6v6h-6V4z M32,22v6h-6v-6H32z M6,22v6H0v-6H6z M6,8h2.826C4.745,10.449,2,14.904,2,20v1h2v-1 c0-5.213,3.346-9.646,8-11.297V6H6V4H0v6h6V8z M4,8H2V6h2V8z"/> </g>
</svg>